<svg width="125" height="125" viewBox="0 0 125 125" fill="none" xmlns="http://www.w3.org/2000/svg">
<path fill-rule="evenodd" clip-rule="evenodd" d="M116.625 37.3738C116.624 35.3266 116.186 33.5176 115.301 31.965C114.431 30.4383 113.129 29.1587 111.382 28.1469C96.9598 19.8313 82.5242 11.5411 68.1072 3.21703C64.2204 0.973141 60.4519 1.05495 56.594 3.33105C50.8537 6.71638 22.1142 23.1819 13.5502 28.1423C10.0233 30.184 8.30714 33.3086 8.30629 37.37C8.30078 54.0932 8.30629 70.816 8.30078 87.5396C8.30163 89.5419 8.72082 91.3158 9.56726 92.845C10.4374 94.418 11.7582 95.7328 13.5456 96.7674C22.11 101.728 50.8533 118.192 56.5923 121.578C60.4519 123.856 64.2204 123.937 68.1085 121.692C82.5259 113.368 96.9624 105.078 111.386 96.7623C113.174 95.7281 114.494 94.4125 115.364 92.8408C116.21 91.3115 116.63 89.5377 116.631 87.535C116.631 87.535 116.631 54.0975 116.625 37.3738Z" fill="#5C8DBC"/>
<path fill-rule="evenodd" clip-rule="evenodd" d="M62.6314 62.292L9.56726 92.8452C10.4374 94.4181 11.7582 95.7329 13.5456 96.7675C22.11 101.728 50.8533 118.192 56.5923 121.578C60.4519 123.856 64.2204 123.937 68.1085 121.692C82.5259 113.368 96.9624 105.078 111.386 96.7624C113.174 95.7282 114.494 94.4126 115.365 92.8409L62.6314 62.292Z" fill="#1A4674"/>
<path fill-rule="evenodd" clip-rule="evenodd" d="M46.9144 71.3422C50.0022 76.7327 55.8069 80.3686 62.4657 80.3686C69.1656 80.3686 75.0033 76.6865 78.0754 71.2383L62.6314 62.292L46.9144 71.3422Z" fill="#1A4674"/>
<path fill-rule="evenodd" clip-rule="evenodd" d="M116.625 37.3739C116.624 35.3267 116.186 33.5177 115.301 31.9651L62.6314 62.2919L115.365 92.8409C116.21 91.3116 116.63 89.5378 116.631 87.535C116.631 87.535 116.631 54.0975 116.625 37.3739Z" fill="#1B598E"/>
<path fill-rule="evenodd" clip-rule="evenodd" d="M113.725 64.4756H109.605V68.5972H105.483V64.4756H101.363V60.3553H105.483V56.2346H109.605V60.3553H113.725V64.4756Z" fill="white"/>
<path fill-rule="evenodd" clip-rule="evenodd" d="M98.6891 64.4756H94.5688V68.5972H90.4481V64.4756H86.3274V60.3553H90.4481V56.2346H94.5688V60.3553H98.6891V64.4756Z" fill="white"/>
<path fill-rule="evenodd" clip-rule="evenodd" d="M78.0754 71.2381C75.0033 76.6863 69.1656 80.3683 62.4657 80.3683C55.8069 80.3683 50.0022 76.7325 46.9144 71.3419C45.4144 68.7225 44.5519 65.6898 44.5519 62.4545C44.5519 52.5613 52.5725 44.5411 62.4657 44.5411C69.0816 44.5411 74.8558 48.1316 77.9589 53.4671L93.6165 44.4508C87.393 33.7078 75.7739 26.4802 62.4657 26.4802C42.597 26.4802 26.491 42.5867 26.491 62.4545C26.491 68.9726 28.225 75.085 31.2555 80.3573C37.4633 91.1571 49.1155 98.4292 62.4657 98.4292C75.8404 98.4292 87.5109 91.1279 93.7097 80.2963L78.0754 71.2381Z" fill="white"/>
</svg>
