<svg width="125" height="140" viewBox="0 0 125 140" fill="none" xmlns="http://www.w3.org/2000/svg">
<path fill-rule="evenodd" clip-rule="evenodd" d="M121.474 38.8477C121.473 36.7128 121.017 34.8266 120.095 33.2079C119.189 31.6157 117.832 30.2818 116.012 29.2265C100.989 20.5558 85.9512 11.9116 70.9333 3.23202C66.8845 0.892641 62.9586 0.977717 58.9398 3.35104C52.9602 6.88104 23.0222 24.0497 14.1011 29.2217C10.4273 31.3508 8.63942 34.6088 8.63854 38.8437C8.63281 56.2812 8.63854 73.7179 8.63281 91.1559C8.63369 93.2435 9.07054 95.0932 9.95216 96.688C10.8585 98.3278 12.2342 99.6988 14.0962 100.778C23.0177 105.95 52.9597 123.117 58.938 126.648C62.9586 129.023 66.8845 129.107 70.9346 126.767C85.953 118.087 100.992 109.443 116.017 100.773C117.879 99.6939 119.255 98.3221 120.161 96.6836C121.041 95.0888 121.479 93.2391 121.48 91.151C121.48 91.151 121.48 56.2856 121.474 38.8477Z" fill="#A9B9CB"/>
<path fill-rule="evenodd" clip-rule="evenodd" d="M70.8315 3.34569C66.7892 1.01205 62.87 1.09712 58.8578 3.46427C52.8879 6.98502 22.9988 24.1091 14.0922 29.2679C10.4243 31.3913 8.63942 34.641 8.63854 38.8648C8.63281 56.2569 8.63854 73.6486 8.63281 91.0412C8.63369 93.1236 9.06965 94.9684 9.94995 96.5588C10.8549 98.1947 12.2285 99.5621 14.0874 100.638C16.1279 101.82 19.2709 103.63 22.9737 105.76L105.446 23.2884C93.9061 16.6436 82.3635 10.0041 70.8315 3.34569Z" fill="#7F8B99"/>
<path fill-rule="evenodd" clip-rule="evenodd" d="M76.7185 57.0512L94.2799 57.1751C94.2799 49.8581 86.8734 31.9392 65.6392 31.9392C52.1103 31.9392 33.9225 40.5403 33.9225 65.2688C33.9225 89.9969 51.7519 98.0606 65.6392 98.0606C88.1279 98.0606 93.5027 82.4992 93.5027 73.705L76.7489 72.7471C76.7489 72.7471 77.1972 82.9188 65.5497 82.9188C54.7983 82.9188 53.0042 69.7483 53.0042 65.2688C53.0042 58.4596 55.4256 47.5289 65.5497 47.5289C75.6742 47.5289 76.7185 57.0512 76.7185 57.0512Z" fill="white"/>
</svg>
