<svg width="136" height="136" viewBox="0 0 136 136" fill="none" xmlns="http://www.w3.org/2000/svg">
<rect x="4" y="4" width="128" height="128" rx="64" fill="white"/>
<rect x="4" y="4" width="128" height="128" rx="64" stroke="black" stroke-width="8"/>
<path d="M56.0002 107C63.1763 107 69.0004 101.176 69.0004 93.9999V80.9998H56.0002C48.8241 80.9998 43 86.8239 43 93.9999C43 101.176 48.8241 107 56.0002 107Z" fill="#0ACF83"/>
<path d="M43 68C43 60.824 48.8241 54.9999 56.0002 54.9999H69.0004V80.9997H56.0002C48.8241 81.0001 43 75.176 43 68Z" fill="#A259FF"/>
<path d="M43 42.0001C43 34.8241 48.8241 29 56.0002 29H69.0004V54.9999H56.0002C48.8241 54.9999 43 49.1761 43 42.0001Z" fill="#F24E1E"/>
<path d="M68.9998 29H82C89.176 29 95.0002 34.8241 95.0002 42.0001C95.0002 49.1761 89.176 54.9999 82 54.9999H68.9998V29Z" fill="#FF7262"/>
<path d="M95.0002 68C95.0002 75.176 89.176 81.0001 82 81.0001C74.8239 81.0001 68.9998 75.176 68.9998 68C68.9998 60.824 74.8239 54.9999 82 54.9999C89.176 54.9999 95.0002 60.824 95.0002 68Z" fill="#1ABCFE"/>
</svg>
