<svg width="500" height="500" viewBox="0 0 500 500" fill="none" xmlns="http://www.w3.org/2000/svg">
<circle cx="250" cy="250" r="250" fill="white"/>
<path d="M132.251 190.72C132.251 179.951 140.981 171.22 151.751 171.22C162.52 171.22 171.251 179.951 171.251 190.72V341.22H137.251C134.489 341.22 132.251 338.981 132.251 336.22V190.72Z" fill="#0094FF"/>
<path d="M321.251 190.72C321.251 179.951 329.981 171.22 340.751 171.22C351.52 171.22 360.251 179.951 360.251 190.72V336.22C360.251 338.981 358.012 341.22 355.251 341.22H321.251V190.72Z" fill="#03A400"/>
<path d="M329.053 170.945C337.087 163.906 349.298 164.68 356.38 172.677C363.559 180.785 362.717 193.198 354.509 200.262L309.5 239L302.133 194.527L329.053 170.945Z" fill="#FFE600"/>
<path fill-rule="evenodd" clip-rule="evenodd" d="M134.246 178.822C128.18 188.268 130.663 201.255 139.786 207.792L254.5 290L309.684 238.802L302.545 194.086L252.891 239.516L161.64 173.631C152.561 167.076 140.297 169.401 134.246 178.822Z" fill="#FF0909" fill-opacity="0.86"/>
</svg>
