<svg width="125" height="125" viewBox="0 0 125 125" fill="none" xmlns="http://www.w3.org/2000/svg">
<g clip-path="url(#clip0_25_84)">
<path fill-rule="evenodd" clip-rule="evenodd" d="M0 0H125V125H0V0Z" fill="#F7DF1E"/>
<path fill-rule="evenodd" clip-rule="evenodd" d="M32.8671 104.459L42.433 98.6701C44.2785 101.942 45.9572 104.711 49.984 104.711C53.8439 104.711 56.2775 103.201 56.2775 97.3277V57.3872H68.0243V97.4938C68.0243 109.66 60.8925 115.198 50.4876 115.198C41.0906 115.198 35.6358 110.331 32.8669 104.458" fill="black"/>
<path fill-rule="evenodd" clip-rule="evenodd" d="M74.4048 103.2L83.9695 97.6626C86.4873 101.775 89.7597 104.795 95.549 104.795C100.416 104.795 103.52 102.361 103.52 99.0051C103.52 94.9775 100.332 93.5509 94.9615 91.2023L92.0256 89.9428C83.5504 86.3354 77.9284 81.8045 77.9284 72.2388C77.9284 63.4285 84.6409 56.7156 95.1298 56.7156C102.598 56.7156 107.968 59.317 111.827 66.1136L102.681 71.9868C100.667 68.3791 98.4861 66.9529 95.13 66.9529C91.6897 66.9529 89.508 69.1344 89.508 71.9868C89.508 75.511 91.6897 76.9378 96.7236 79.1195L99.6601 80.3781C109.645 84.6576 115.267 89.0203 115.267 98.8372C115.267 109.41 106.961 115.199 95.801 115.199C84.8931 115.199 77.8447 109.997 74.405 103.2" fill="black"/>
</g>
<defs>
<clipPath id="clip0_25_84">
<rect width="125" height="125" fill="white"/>
</clipPath>
</defs>
</svg>
