<svg width="125" height="125" viewBox="0 0 125 125" fill="none" xmlns="http://www.w3.org/2000/svg">
<g clip-path="url(#clip0_25_70)">
<path d="M61.9001 0.488281C30.2437 0.488284 32.2205 14.2164 32.2205 14.2164L32.2558 28.4386H62.4647V32.7088H20.2569C20.2569 32.7088 0 30.4115 0 62.3531C-2.25781e-06 94.2946 17.6807 93.1619 17.6807 93.1619H28.2326V78.3398C28.2326 78.3398 27.6639 60.6591 45.631 60.6591H75.5929C75.5929 60.6591 92.4266 60.9312 92.4266 44.39V17.0397C92.4266 17.0397 94.9824 0.488281 61.9001 0.488281ZM45.2428 10.0521C48.2484 10.0521 50.6776 12.4813 50.6776 15.4869C50.6776 18.4924 48.2484 20.9217 45.2428 20.9217C42.2372 20.9217 39.808 18.4924 39.808 15.4869C39.808 12.4813 42.2372 10.0521 45.2428 10.0521Z" fill="url(#paint0_linear_25_70)"/>
<path d="M62.7991 124.538C94.4555 124.538 92.4787 110.81 92.4787 110.81L92.4434 96.5877H62.2345V92.3175H104.442C104.442 92.3175 124.699 94.6148 124.699 62.6732C124.699 30.7316 107.018 31.8643 107.018 31.8643H96.4665V46.6865C96.4665 46.6865 97.0353 64.3672 79.0682 64.3672H49.1063C49.1063 64.3672 32.2726 64.095 32.2726 80.6362V107.987C32.2726 107.987 29.7168 124.538 62.7991 124.538ZM79.4564 114.974C76.4508 114.974 74.0216 112.545 74.0216 109.539C74.0216 106.534 76.4508 104.105 79.4564 104.105C82.4619 104.105 84.8912 106.534 84.8912 109.539C84.8912 112.545 82.4619 114.974 79.4564 114.974Z" fill="url(#paint1_linear_25_70)"/>
</g>
<defs>
<linearGradient id="paint0_linear_25_70" x1="11.9838" y1="11.6462" x2="73.7802" y2="72.8261" gradientUnits="userSpaceOnUse">
<stop stop-color="#387EB8"/>
<stop offset="1" stop-color="#366994"/>
</linearGradient>
<linearGradient id="paint1_linear_25_70" x1="49.9145" y1="50.9319" x2="116.277" y2="113.667" gradientUnits="userSpaceOnUse">
<stop stop-color="#FFE052"/>
<stop offset="1" stop-color="#FFC331"/>
</linearGradient>
<clipPath id="clip0_25_70">
<rect width="125" height="125" fill="white"/>
</clipPath>
</defs>
</svg>
